<svg width="22" height="21" viewBox="0 0 22 21" fill="none" xmlns="http://www.w3.org/2000/svg">
<g id="BookmarkSimple">
<path id="Vector" d="M15.8125 2.625H6.1875C5.82283 2.625 5.47309 2.76328 5.21523 3.00942C4.95737 3.25556 4.8125 3.5894 4.8125 3.9375V18.375C4.81256 18.4921 4.84545 18.6071 4.90777 18.708C4.97008 18.8089 5.05954 18.892 5.16687 18.9487C5.2742 19.0055 5.39548 19.0338 5.51813 19.0307C5.64078 19.0276 5.76033 18.9932 5.86437 18.9312L11 15.8673L16.1365 18.9312C16.2405 18.993 16.36 19.0272 16.4825 19.0302C16.605 19.0332 16.7261 19.0048 16.8333 18.9481C16.9405 18.8914 17.0299 18.8083 17.0922 18.7076C17.1544 18.6068 17.1873 18.492 17.1875 18.375V3.9375C17.1875 3.5894 17.0426 3.25556 16.7848 3.00942C16.5269 2.76328 16.1772 2.625 15.8125 2.625ZM15.8125 17.1913L11.3635 14.5376C11.2542 14.4724 11.128 14.4378 10.9991 14.4378C10.8703 14.4378 10.744 14.4724 10.6348 14.5376L6.1875 17.1913V3.9375H15.8125V17.1913Z" fill="black"/>
</g>
</svg>
