<svg width="38" height="40" viewBox="0 0 38 40" fill="none" xmlns="http://www.w3.org/2000/svg">
<g id="ChatsCircle">
<path id="Vector" d="M34.0451 29.0989C34.863 27.34 35.2706 25.3994 35.2338 23.4396C35.197 21.4798 34.7169 19.5578 33.8337 17.8347C32.9505 16.1115 31.6899 14.6373 30.1575 13.5356C28.625 12.4338 26.8654 11.7366 25.0259 11.5023C24.4158 9.99766 23.5273 8.63747 22.4126 7.50181C21.298 6.36615 19.9798 5.478 18.5356 4.88968C17.0915 4.30136 15.5507 4.02477 14.004 4.07622C12.4573 4.12766 10.936 4.5061 9.52963 5.18923C8.12331 5.87236 6.86043 6.84636 5.81542 8.05385C4.7704 9.26134 3.96439 10.6779 3.44486 12.2201C2.92533 13.7622 2.70279 15.3988 2.79036 17.0334C2.87793 18.6679 3.27384 20.2674 3.95476 21.7376L2.84438 25.8507C2.74529 26.2187 2.74095 26.608 2.8318 26.9784C2.92266 27.3487 3.1054 27.6866 3.36112 27.9572C3.61685 28.2277 3.93626 28.4211 4.28632 28.5172C4.63637 28.6133 5.00434 28.6087 5.35215 28.5039L9.23992 27.3291C10.4131 27.9385 11.675 28.3341 12.9726 28.4993C13.5911 30.0324 14.4985 31.4162 15.6393 32.566C16.7801 33.7158 18.1304 34.6076 19.6077 35.187C21.0851 35.7664 22.6586 36.0212 24.2322 35.9358C25.8057 35.8504 27.3463 35.4267 28.76 34.6905L32.6477 35.8652C32.9956 35.9701 33.3635 35.9747 33.7136 35.8785C34.0636 35.7824 34.383 35.5891 34.6388 35.3185C34.8945 35.048 35.0772 34.7101 35.1681 34.3397C35.2589 33.9694 35.2546 33.5801 35.1555 33.2121L34.0451 29.0989ZM9.36459 24.7895C9.25681 24.7895 9.14953 24.805 9.04568 24.8355L5.21734 25.9934L6.31177 21.9431C6.39379 21.6345 6.35841 21.3042 6.2132 21.0229C5.14691 18.9518 4.82175 16.5436 5.29729 14.2395C5.77284 11.9354 7.01725 9.8897 8.80249 8.47735C10.5877 7.06499 12.7942 6.38054 15.0177 6.5494C17.2411 6.71825 19.3326 7.72912 20.9089 9.39676C22.4852 11.0644 23.4406 13.2771 23.6002 15.6295C23.7598 17.9818 23.1129 20.3162 21.7779 22.205C20.443 24.0937 18.5094 25.4103 16.3315 25.9134C14.1537 26.4165 11.8774 26.0725 9.91978 24.9444C9.75005 24.844 9.55905 24.7907 9.36459 24.7895ZM31.6881 29.3044L32.7826 33.3547L28.9542 32.1968C28.6625 32.1101 28.3504 32.1475 28.0845 32.3011C25.9468 33.5315 23.4379 33.825 21.0978 33.1183C18.7577 32.4116 16.7733 30.7612 15.5717 28.5223C17.1596 28.3473 18.6963 27.8271 20.0852 26.9941C21.4741 26.1612 22.6853 25.0335 23.6428 23.682C24.6004 22.3304 25.2835 20.784 25.6495 19.1399C26.0155 17.4958 26.0563 15.7894 25.7695 14.1278C27.1591 14.4743 28.4543 15.1554 29.5544 16.1181C30.6545 17.0808 31.5298 18.2991 32.1121 19.6782C32.6943 21.0573 32.9679 22.5599 32.9114 24.0692C32.855 25.5784 32.4701 27.0535 31.7867 28.3797C31.6403 28.6623 31.6049 28.9944 31.6881 29.3044Z" fill="white"/>
</g>
</svg>
