<svg width="21" height="23" viewBox="0 0 21 23" fill="none" xmlns="http://www.w3.org/2000/svg">
<g id="ChatCircle">
<path id="Vector" d="M10.5 2.15625C9.02713 2.1559 7.57924 2.5732 6.29729 3.36755C5.01533 4.1619 3.94298 5.30622 3.18463 6.68914C2.42627 8.07205 2.00773 9.64645 1.96976 11.2591C1.93178 12.8717 2.27566 14.4677 2.96792 15.8916L2.03687 18.9507C1.95975 19.204 1.94855 19.4758 2.00454 19.7357C2.06054 19.9955 2.1815 20.2332 2.35388 20.422C2.52626 20.6108 2.74323 20.7433 2.98049 20.8046C3.21776 20.8659 3.46592 20.8536 3.69718 20.7692L6.49034 19.7495C7.63449 20.416 8.90224 20.7882 10.1974 20.838C11.4925 20.8878 12.7809 20.6137 13.9649 20.0367C15.1489 19.4597 16.1973 18.5948 17.0305 17.5077C17.8638 16.4207 18.46 15.14 18.7738 13.7629C19.0877 12.3858 19.1109 10.9485 18.8419 9.56013C18.5728 8.17171 18.0185 6.86868 17.221 5.74992C16.4235 4.63117 15.4038 3.72611 14.2393 3.10343C13.0747 2.48076 11.7959 2.15683 10.5 2.15625ZM10.5 19.4062C9.23099 19.4072 7.98421 19.0412 6.88573 18.3452C6.80531 18.2941 6.71589 18.2623 6.6234 18.252C6.53091 18.2416 6.43746 18.2528 6.34925 18.285L3.28128 19.4062L4.30421 16.0461C4.3337 15.9495 4.34412 15.8472 4.33479 15.7459C4.32545 15.6446 4.29658 15.5467 4.25007 15.4585C3.45434 13.9518 3.13486 12.1995 3.34119 10.4736C3.54751 8.74767 4.26811 7.14457 5.3912 5.91297C6.51428 4.68137 7.97707 3.89012 9.55265 3.66196C11.1282 3.43381 12.7285 3.7815 14.1052 4.65111C15.482 5.52071 16.5582 6.86362 17.167 8.4715C17.7758 10.0794 17.8831 11.8624 17.4722 13.5438C17.0614 15.2253 16.1554 16.7113 14.8947 17.7713C13.6341 18.8313 12.0893 19.406 10.5 19.4062Z" fill="black"/>
</g>
</svg>
