<svg width="20" height="19" viewBox="0 0 20 19" fill="none" xmlns="http://www.w3.org/2000/svg">
<g id="PaperPlaneTilt">
<path id="Vector" d="M17.7594 2.12855C17.6022 1.97932 17.406 1.87259 17.1909 1.81937C16.9759 1.76614 16.7498 1.76834 16.5359 1.82573H16.5242L1.52891 6.14823C1.28481 6.21492 1.06789 6.35067 0.907035 6.5374C0.746176 6.72413 0.649012 6.95299 0.628481 7.19349C0.60795 7.43399 0.665026 7.67473 0.79211 7.88364C0.919194 8.09256 1.11025 8.25974 1.33985 8.36292L8.02891 11.3725L11.1969 17.7271C11.2969 17.9306 11.4561 18.1027 11.6557 18.223C11.8553 18.3433 12.087 18.4069 12.3234 18.4062C12.3594 18.4062 12.3953 18.4047 12.4313 18.4018C12.6835 18.3823 12.9235 18.2901 13.119 18.1374C13.3145 17.9847 13.4562 17.7789 13.525 17.5475L18.0719 3.30195C18.0719 3.29823 18.0719 3.29452 18.0719 3.29081C18.1331 3.08817 18.1364 2.8737 18.0815 2.66944C18.0266 2.46518 17.9154 2.27849 17.7594 2.12855ZM12.3305 17.2076L12.3266 17.218L9.25157 11.0511L12.9422 7.54429C13.0545 7.43203 13.1161 7.28256 13.114 7.12773C13.1119 6.9729 13.0463 6.82497 12.931 6.71549C12.8158 6.606 12.6601 6.54361 12.4971 6.54163C12.3341 6.53965 12.1768 6.59823 12.0586 6.70487L8.36719 10.211L1.87501 7.28972H1.88594L16.875 2.9687L12.3305 17.2076Z" fill="black"/>
</g>
</svg>
