<?xml version="1.0" standalone="no"?>
<!DOCTYPE svg PUBLIC "-//W3C//DTD SVG 20010904//EN"
 "http://www.w3.org/TR/2001/REC-SVG-20010904/DTD/svg10.dtd">
<svg version="1.0" xmlns="http://www.w3.org/2000/svg"
 width="500.000000pt" height="500.000000pt" viewBox="0 0 500.000000 500.000000"
 preserveAspectRatio="xMidYMid meet">

<g transform="translate(0.000000,500.000000) scale(0.100000,-0.100000)"
fill="#000000" stroke="none">
<path d="M2150 3474 c-279 -43 -463 -246 -448 -496 5 -84 25 -71 29 20 7 153
102 287 254 358 108 50 111 50 145 14 64 -69 65 -78 65 -770 0 -450 -3 -634
-12 -656 l-11 -32 41 5 c67 8 66 6 43 70 -20 56 -21 75 -23 658 -3 508 -1 597
11 583 7 -10 134 -218 282 -463 148 -244 272 -444 276 -445 4 0 10 9 13 21 4
11 9 18 12 15 10 -10 -64 -149 -112 -208 -86 -110 -229 -201 -372 -239 -110
-30 -307 -30 -414 -1 -227 61 -391 207 -478 427 -51 128 -63 198 -64 370 -1
164 17 273 68 407 40 107 69 151 147 223 32 30 58 56 58 59 0 32 -161 -76
-240 -161 -147 -157 -219 -367 -207 -608 19 -387 271 -681 665 -777 73 -18
114 -21 257 -20 195 2 248 5 255 13 3 3 28 11 55 18 62 16 199 79 259 120 72
50 164 139 211 205 78 111 114 200 139 346 14 83 19 92 203 402 103 175 192
318 196 318 14 0 3 -1269 -11 -1312 -7 -20 -26 -48 -42 -62 -17 -13 -30 -29
-30 -35 0 -7 59 -11 180 -11 144 0 180 3 180 13 0 8 -11 19 -25 25 -13 6 -32
26 -42 44 -17 31 -18 76 -18 683 0 603 1 654 18 702 18 52 57 95 97 108 11 3
20 13 20 21 0 11 -23 14 -127 14 l-128 0 -51 -88 c-28 -48 -132 -222 -230
-387 l-179 -300 -7 90 c-41 479 -435 791 -908 719z m243 -70 c106 -23 205 -74
270 -138 63 -63 128 -154 158 -223 47 -109 79 -349 62 -458 l-8 -50 -258 426
-257 426 -63 15 -62 16 43 1 c24 0 75 -6 115 -15z"/>
<path d="M1483 1735 c-64 -28 -66 -150 -3 -182 93 -47 181 28 151 128 -19 62
-79 84 -148 54z m84 -30 c27 -19 36 -56 22 -92 -19 -51 -65 -59 -99 -16 -26
33 -21 79 11 106 26 21 38 21 66 2z"/>
<path d="M1710 1646 c0 -99 1 -106 20 -106 16 0 20 7 20 34 0 32 1 34 47 39
53 6 73 25 73 73 0 43 -16 53 -94 61 l-66 6 0 -107z m119 40 c4 -23 -24 -46
-56 -46 -20 0 -23 5 -23 36 0 35 1 35 37 32 28 -2 39 -8 42 -22z"/>
<path d="M1930 1729 c0 -18 5 -21 30 -17 l30 5 0 -89 c0 -81 2 -88 20 -88 18
0 20 7 20 85 l0 85 35 0 c28 0 35 4 35 20 0 18 -7 20 -85 20 -80 0 -85 -1 -85
-21z"/>
<path d="M2167 1743 c-4 -3 -7 -51 -7 -105 0 -91 1 -98 20 -98 19 0 20 7 20
105 0 81 -3 105 -13 105 -8 0 -17 -3 -20 -7z"/>
<path d="M2280 1641 c0 -82 3 -101 15 -101 11 0 15 19 17 88 l3 87 28 -88 c17
-54 33 -87 40 -84 6 2 24 41 39 88 l27 84 1 -87 c0 -71 3 -88 15 -88 12 0 15
18 15 100 0 99 0 100 -24 100 -22 0 -27 -8 -47 -75 -12 -42 -24 -73 -27 -70
-3 3 -15 36 -27 73 -18 59 -24 67 -48 70 l-27 3 0 -100z"/>
<path d="M2626 1732 c-8 -13 -66 -175 -66 -184 0 -21 29 -5 39 22 9 27 14 30
51 30 37 0 42 -3 51 -30 6 -16 17 -30 25 -30 19 0 19 2 -18 107 -28 79 -36 93
-55 93 -12 0 -24 -4 -27 -8z m54 -99 c0 -8 -13 -13 -31 -13 -34 0 -35 8 -8 77
l11 28 14 -40 c7 -22 14 -46 14 -52z"/>
<path d="M2820 1640 c0 -81 3 -100 15 -100 11 0 15 18 17 81 l3 82 45 -82 c36
-64 49 -81 67 -81 22 0 23 3 23 100 0 82 -3 100 -15 100 -12 0 -15 -15 -15
-76 0 -45 -4 -73 -10 -69 -5 3 -26 37 -47 75 -30 54 -43 70 -60 70 -22 0 -23
-3 -23 -100z"/>
<path d="M3130 1736 c0 -2 -16 -47 -35 -100 -32 -89 -33 -96 -16 -96 13 0 21
9 26 30 6 28 10 30 50 30 39 0 44 -3 54 -30 5 -16 17 -30 25 -30 20 0 21 -5
-9 76 -46 125 -46 124 -71 124 -13 0 -24 -2 -24 -4z m54 -93 c7 -21 4 -23 -29
-23 -25 0 -35 4 -31 13 2 6 10 30 17 51 l13 39 12 -29 c6 -16 15 -39 18 -51z"/>
<path d="M3341 1716 c-26 -27 -32 -92 -12 -129 25 -47 87 -60 147 -31 29 14
34 21 34 50 0 33 -1 34 -40 34 -22 0 -40 -4 -40 -10 0 -5 11 -10 25 -10 18 0
25 -5 25 -19 0 -38 -89 -45 -114 -9 -51 73 22 161 92 112 30 -20 49 -8 26 17
-27 29 -113 27 -143 -5z"/>
<path d="M3590 1640 l0 -100 80 0 c64 0 80 3 80 15 0 12 -13 15 -60 15 l-60 0
0 30 c0 30 1 30 55 30 42 0 55 3 55 15 0 12 -13 15 -55 15 -54 0 -55 0 -55 30
l0 30 60 0 c33 0 60 4 60 10 0 6 -33 10 -80 10 l-80 0 0 -100z"/>
</g>
</svg>
